<svg class="logo logo--mobile logo--full" xmlns="http://www.w3.org/2000/svg" viewBox="0 0 170.89 67.68"><title>logo-mobile-full</title><path class="cls-1" d="M12.53,32.35a.34.34,0,0,1,.43.06c.11.13.13.28.43.28s.51-.12.83-.57c.18-.25.35-.51.62-.94s.61-.93.74-1.11.28-.34.28-.47-.48-.09-.73-.09a1.33,1.33,0,0,0-.75.17c-.06,0-.24-.06-.21-.18a3.32,3.32,0,0,1,.45-.62.88.88,0,0,1,.45,0l.69.11a1.77,1.77,0,0,0,1-.08.34.34,0,0,1,.18.19c0,.08-.26.3-.42.5s-.66,1-.93,1.42a7.36,7.36,0,0,1-1,1.43,1.89,1.89,0,0,1-1.33.62,1.1,1.1,0,0,1-.83-.35A.26.26,0,0,1,12.53,32.35Z"/><path d="M18.61.76c.09.37-.7.31-1,1.18a1,1,0,0,0,1.51,1.18c.89-.59.61-1.12,1-1.18a3.47,3.47,0,0,1,.54,1.93,5.33,5.33,0,0,1-1.06,2.71c-.32-.05-.38-.82-.64-1.14a1,1,0,0,0-1.17-.26c-.44.26-.3,1.13-.22,1.63a4.31,4.31,0,0,0,.75,1.36,3.87,3.87,0,0,0,1.28,1.2,4.42,4.42,0,0,0,2.67.55,7.29,7.29,0,0,0,2.1-.46,2.33,2.33,0,0,1,.41-1.28,1.86,1.86,0,0,1,2.11-.32c1,.51.81,1.28,1.05,1.34a3.3,3.3,0,0,1,2.29,1,4.84,4.84,0,0,1,1.28,2.1.87.87,0,0,0,.66.71c.24.09,1.07.27,1.07,1.61a1.59,1.59,0,0,1-.71,1.2c-.29.21-.54.16-.72.35s-.32.68-.48,1c-.23.5-.69,1.24-1,1.69-.83,1.39-1.57,2.39-2.35,3.69-.39.64-.82,1.47-.72,1.67s1.35.54,1.21,1.72a1.49,1.49,0,0,1-1.28,1.33c-.27,0,.38,2.1.14,2.3s-1.32-.42-2.88-.69a48,48,0,0,0-7.8-.76C10.49,28,6,29.48,5.57,29.2S5.74,27,5.3,27a1.14,1.14,0,0,1-1.08-.91,1.41,1.41,0,0,1,0-1.25c.13-.32.71-.59.7-.78A8.65,8.65,0,0,0,4.33,22c-.11-.22-.63-1.29-.78-1.55a22,22,0,0,1-1.94-3.62c-.17-.52-.17-1.41-.5-1.44A1.39,1.39,0,0,1,0,13.94a1.55,1.55,0,0,1,1.3-1.51,10.08,10.08,0,0,1,1.83-2.7A5,5,0,0,1,5.52,8.66c.16-.3.49-1.46,1.75-1.45a2.34,2.34,0,0,1,1.34.45,1.53,1.53,0,0,1,.47,1.45c-.05.23.61.29.89.36a5.32,5.32,0,0,0,2.69,0,3.83,3.83,0,0,0,2-1.39,4.17,4.17,0,0,0,.79-1.43,1.6,1.6,0,0,0-.1-1.39c-.24-.29-1-.22-1.38.11s-.21.93-.62,1a3.92,3.92,0,0,1-.89-2.2,3.64,3.64,0,0,1,.72-2.31c.48,0,.12,1.48,1.38,1.49A1.12,1.12,0,0,0,15.62,2c-.14-.88-1-1-1-1.25S15.88,0,16.67,0,18.5.34,18.61.76Zm5.87,19.31c-.37.8-.69,1.56-.77,1.79a1.43,1.43,0,0,0,.44,1.71,1,1,0,0,0,1.42-.33c.24-.4,1.67-3.2,1.85-3.49s.8-1.26,1.14-1.83a7.29,7.29,0,0,0,1.39-3.11,3.79,3.79,0,0,0-1-3.1,3.76,3.76,0,0,0-2.21-1,13.74,13.74,0,0,0-2.08.41c-.19,0-1.6.41-2.18.54a8.49,8.49,0,0,1-1.82.09,9.75,9.75,0,0,0-.2,1.79,11.1,11.1,0,0,1-.65,2.38A23.08,23.08,0,0,0,18.75,19a8.59,8.59,0,0,0-.3,2.78,1.71,1.71,0,0,0,.65,1.39,2.31,2.31,0,0,0,1.34.31,1.64,1.64,0,0,0,1.17-.89c.27-.53.94-2,1.52-3.14.37-.77.87-1.37.71-1.49s-.84.43-1.25.72c-.2.14-.45-.07-.51-.26a15.56,15.56,0,0,1,.54-1.59c.14-.47.25-1.22.53-1.22.46,0,.53.71,1,.73.12,0,0-.59-.16-.94a3.47,3.47,0,0,1-.22-.65.48.48,0,0,1,.3-.45c.16,0,1,.12,1.49.19s1.35.22,1.46.25.18.25.12.43-.55.44-.76.67-.62.58-.52.68.42-.19.65-.36a2.76,2.76,0,0,1,.63-.38c.18,0,.32,0,.29.14s-.38.89-.57,1.42-.43,1.11-.59,1.68c-.1.34-.36.2-.43.08-.32-.51-.42-1-.61-.95A13.16,13.16,0,0,0,24.47,20.07ZM11.26,11.54c-1.37,0-2.73-1-4.17-1.05-2.25,0-2.66.72-2.78.86a5.93,5.93,0,0,0-.76,1.12A5.31,5.31,0,0,0,3.4,15.9a12.31,12.31,0,0,0,.95,2.41c.4.72.78,1.43,1,1.81s.87,1.49,1.25,2.09c.26.41.77,1.23,1.61,1.19.51,0,1.05-.15,1.06-.83A23.76,23.76,0,0,0,8,18.27c-.18-.06-.33.3-.46.64s-.35.81-.5.71a9.82,9.82,0,0,1-.83-2C6,17,5.7,16.3,5.55,16s.14-.52.35-.4.51.31.62.39.89.72,1,.53-.47-.79-.7-1.07-.48-.52-.34-.75.92-.19,1.5-.29,1.28-.26,1.51-.26.26.34.18.5c-.29.58-.75,1.67-.53,1.72s.27-.1.52-.36c.42-.43.5-.58.71-.58s.36.92.49,1.56.29,1.22.4,1.72a.31.31,0,0,1-.28.33c-.17,0-.67-.43-.84-.57s-.49-.46-.56-.27a25.22,25.22,0,0,0,1.7,3.93c.22.42.51,1.53,1.76,1.55a2,2,0,0,0,1.88-1.93,6.8,6.8,0,0,0-.28-2.61c-.7-2.21-1.83-4-2-5.83,0-.5.11-1.66-.07-1.78A6.49,6.49,0,0,0,11.26,11.54Zm5.26.62c-1.14,0-2.06.59-2.06,1.31s.92,1.3,2.06,1.3,2.06-.59,2.06-1.31S17.66,12.16,16.52,12.16Zm-.07-8.74a.53.53,0,1,0,.55.52A.54.54,0,0,0,16.45,3.42Zm.05,20.35A1.25,1.25,0,1,0,17.77,25,1.27,1.27,0,0,0,16.5,23.77Zm-6.22.63c-.38.14-.51.69-.3,1.21s.68.83,1.06.69a.9.9,0,0,0,.3-1.21C11.14,24.56,10.66,24.25,10.29,24.39Zm11.13.92a.9.9,0,0,0,.27,1.22c.37.15.85-.14,1.08-.66a.9.9,0,0,0-.27-1.22C22.12,24.51,21.64,24.8,21.41,25.32Z"/><path class="cls-1" d="M17.85,29.15a.21.21,0,0,0-.25,0c0,.06-.77,1-.83,1.12s.07.23.18.23c.28,0,.62-.15.87.25a1.18,1.18,0,0,1-.29,1.39c-.51.43-1.41.24-1.32,0s-.12-.29-.31-.27-.28.15-.28.38.39.58.94.59a1.88,1.88,0,0,0,1.81-1.1,1.6,1.6,0,0,0,0-1.35,1,1,0,0,0-.89-.49s.08-.19.12-.22.19,0,.48,0a1.79,1.79,0,0,0,.73,0,1.49,1.49,0,0,0,.65-.38c.18-.17.08-.31,0-.32a6.52,6.52,0,0,1-1.09.24A1.2,1.2,0,0,1,17.85,29.15Z"/><path d="M19.11,32c-.09,0-.16,0-.32,0s-.3-.28-.19-.39,2.28-2.38,2.47-2.54a.41.41,0,0,1,.36-.08.29.29,0,0,1,.05.29c0,.12-.39.77-.48,1s-.49.94-.4,1.06.18,0,.3,0,.13.15.13.25a.78.78,0,0,1-.12.4c-.1.15-.3,0-.48,0s-.16.12-.18.2a2,2,0,0,0,0,.41c0,.19-.2.23-.4.23s-.47,0-.5-.15.2-.26.23-.37a.46.46,0,0,0,0-.26S19.18,32,19.11,32Zm.78-.61c.08-.12.42-.85.3-.85a3.57,3.57,0,0,0-.83.83C19.35,31.47,19.83,31.49,19.89,31.41Z"/><path class="cls-1" d="M12.65,32.25c-.08.1-.27.09-.47.1s-.45,0-.54-.08a.22.22,0,0,1,0-.27,1.78,1.78,0,0,0,.65-.88,6.44,6.44,0,0,0,.45-1.25c0-.27-.08-.18-.07-.34s.2-.22.43-.33.51-.21.72-.3c0,0,.14.05.14.12a3.82,3.82,0,0,1-.32.51,8.4,8.4,0,0,0-.48,1,9.67,9.67,0,0,0-.38,1.08C12.7,31.9,12.75,32.13,12.65,32.25Z"/><path d="M41.51,2.79H39.26V.16h7.6V2.79H44.61V13.48h-3.1Z"/><path d="M47.67.16h3.1V5.24h2.11V.16H56V13.48h-3.1V7.74H50.76v5.74h-3.1Z"/><path d="M57.37.16H64V2.79H60.46v2.5h2.48V7.74H60.46v3.2h3.62v2.54H57.37Z"/><path d="M68.4.16H75V2.79H71.5v2.5H74V7.74H71.5v3.2h3.62v2.54H68.4Z"/><path d="M84.11,13.48h-3L79.58,9.16h-.5v4.32h-3V.16h3.67c2.41,0,4.12,1.24,4.12,4.45A4.25,4.25,0,0,1,82.3,8.22ZM79.69,6.71c.74,0,1.17-.4,1.17-2.05s-.43-1.87-1.19-1.87h-.59V6.71Z"/><path d="M85.18.16h3.1V13.48h-3.1Z"/><path d="M89.37,6.82C89.37,1.89,91,0,93.73,0s3.87,1.62,4,5.15l-2.92.25c-.13-2.12-.38-2.66-1.12-2.66-1,0-1.22,1.13-1.22,4.09S92.79,11,93.74,11c.77,0,1-.52,1.21-2.77l2.92.27c-.31,2.77-1.24,5.11-4.14,5.11C91,13.62,89.37,11.75,89.37,6.82Z"/><path d="M102.15.16h3.1V5.24h2.11V.16h3.1V13.48h-3.1V7.74h-2.11v5.74h-3.1Z"/><path d="M111.67,10.37H115v3.11h-3.31Z"/><path d="M118.91.16H122V5.24h2.11V.16h3.1V13.48h-3.1V7.74H122v5.74h-3.1Z"/><path d="M128.21,6.82c0-4.93,1.85-6.82,4.5-6.82s4.48,1.89,4.48,6.82-1.85,6.8-4.48,6.8S128.21,11.75,128.21,6.82Zm5.85,0c0-2.86-.32-4.09-1.35-4.09S131.35,4,131.35,6.82s.32,4.16,1.37,4.16S134.06,9.68,134.06,6.82Z"/><path d="M138.2.16h3.1V10.94h3.53v2.54H138.2Z"/><path d="M145.69.16h3.17c3.1,0,5.33,1,5.33,6.62s-2.29,6.69-5.33,6.69h-3.17Zm3.55,10.74c1.49,0,1.82-.88,1.82-4.12s-.32-4-1.84-4h-.43v8.12Z"/><path d="M155.18.16h6.59V2.79h-3.49v2.5h2.48V7.74h-2.48v3.2h3.62v2.54h-6.71Z"/><path d="M170.89,13.48h-3l-1.49-4.32h-.5v4.32h-3V.16h3.67c2.41,0,4.12,1.24,4.12,4.45a4.25,4.25,0,0,1-1.57,3.62Zm-4.43-6.77c.74,0,1.17-.4,1.17-2.05s-.43-1.87-1.19-1.87h-.59V6.71Z"/><path d="M39.94,18.16H43V31.48h-3.1Z"/><path d="M44.53,18.16h3.19l1.69,4.61c.36,1.06.63,1.84.85,2.65h.07V18.16h2.39V31.48H50.1L47.9,26c-.38-1-.76-2.14-.9-2.65h-.07v8.12H44.53Z"/><path d="M54.22,18.16h3.1V31.48h-3.1Z"/><path d="M60.46,20.79H58.21V18.16h7.6v2.63H63.56V31.48h-3.1Z"/><path d="M66.71,18.16h3.1V31.48h-3.1Z"/><path d="M73.22,31.48H70.56l2.88-13.37h3.1l2.88,13.37h-3L76,29H73.64Zm2.32-5c-.25-1.48-.47-2.41-.7-4.59h-.07c-.22,2.18-.43,3.06-.68,4.52l-.09.5h1.62Z"/><path d="M80.71,20.79H78.46V18.16h7.6v2.63H83.81V31.48h-3.1Z"/><path d="M87,18.16h3.1V31.48H87Z"/><path d="M90.81,18.16h3.06l.86,5c.25,1.48.41,2.41.65,4.41h.07c.22-2,.38-2.88.63-4.34L97,18.16h2.7L96.79,31.53h-3.1Z"/><path d="M100.33,18.16h6.59v2.63h-3.49v2.5h2.48v2.45h-2.48v3.2H107v2.54h-6.71Z"/><path d="M40.27,36.16H45.7v1.26h-4v4.45h2.92v1.24H41.67v6.37h-1.4Z"/><path d="M46.53,42.82C46.53,38.12,48,36,50.4,36s3.87,2.12,3.87,6.82-1.53,6.82-3.87,6.82S46.53,47.52,46.53,42.82Zm6.28,0c0-3.58-.77-5.53-2.41-5.53s-2.47,1.94-2.47,5.53.81,5.54,2.47,5.54S52.81,46.4,52.81,42.82Z"/><path d="M62.73,49.48H61.31l-2.09-5.63a3.6,3.6,0,0,1-.45,0H57.57v5.62H56.18V36.16H58.7c2.59,0,3.89,1.15,3.89,3.8a3.6,3.6,0,0,1-2,3.58Zm-3.94-6.79c1.76,0,2.41-.76,2.41-2.7s-.63-2.59-2.5-2.59H57.57v5.29Z"/><path d="M67.38,42.82c0-4.77,1.44-6.82,3.8-6.82,2.2,0,3.08,1.75,3.35,4.32l-1.35.16c-.25-2.05-.81-3.19-2-3.19-1.66,0-2.39,2-2.39,5.51s.76,5.56,2.41,5.56c1.24,0,1.85-1,2.14-3.31l1.35.14c-.36,2.61-1.3,4.43-3.49,4.43C68.73,49.62,67.38,47.64,67.38,42.82Z"/><path d="M76.5,36.16h1.4V49.48H76.5Z"/><path d="M79.63,36.16H81l1.64,7.67c.25,1.15.5,2.36.72,3.76h0c.2-1.35.45-2.47.7-3.74l1.66-7.69H87L84,49.53H82.66Z"/><path d="M88.78,36.16h1.4V49.48h-1.4Z"/><path d="M92.65,36.16h1.4V48.24h4v1.24H92.65Z"/><path d="M102.42,49.48h-1.26l3.1-13.37h1.35l3.1,13.37h-1.39l-.85-3.91h-3.19Zm3.2-7.76c-.27-1.31-.5-2.3-.72-3.82h-.05c-.22,1.55-.45,2.48-.72,3.8l-.59,2.74h2.68Z"/><path d="M110.36,36.16h1.58l3,7.7c.4,1,.74,1.93,1,2.63h0V36.16h1.19V49.48h-1.22l-3.42-8.6c-.32-.77-.81-2.09-.94-2.48h0V49.48h-1.17Z"/><path d="M119.52,36.16h2.34c3.1,0,4.57,1.75,4.57,6.64s-1.53,6.68-4.57,6.68h-2.34Zm2.54,12.09c2.16,0,3-1.69,3-5.45s-.79-5.38-3-5.38h-1.12V48.26Z"/><path d="M40.27,54.16H42.9c2.29,0,3.8,1,3.8,3.82,0,3.15-1.66,4-3.89,4H41.65v5.53H40.27Zm2.66,6.59c1.66,0,2.36-.79,2.36-2.72s-.68-2.63-2.38-2.63H41.65v5.35Z"/><path d="M48,60.82c0-4.7,1.49-6.82,3.87-6.82s3.87,2.12,3.87,6.82-1.53,6.82-3.87,6.82S48,65.52,48,60.82Zm6.28,0c0-3.58-.77-5.53-2.41-5.53s-2.47,1.94-2.47,5.53.81,5.54,2.47,5.54S54.25,64.4,54.25,60.82Z"/><path d="M57.62,54.16H59V66.24h4v1.24H57.62Z"/><path d="M64.86,54.16h1.4V67.48h-1.4Z"/><path d="M70.63,55.42H68V54.16H74.7v1.26H72.05V67.48H70.63Z"/><path d="M76.45,54.16h1.4V67.48h-1.4Z"/><path d="M79.89,60.82c0-4.77,1.44-6.82,3.8-6.82,2.2,0,3.08,1.75,3.35,4.32l-1.35.16c-.25-2.05-.81-3.19-2-3.19-1.66,0-2.39,2-2.39,5.51s.76,5.56,2.41,5.56c1.24,0,1.85-1,2.14-3.31l1.35.14c-.36,2.61-1.3,4.43-3.49,4.43C81.23,67.62,79.89,65.64,79.89,60.82Z"/><path d="M89.1,67.48H87.84l3.1-13.37h1.35l3.1,13.37H94l-.85-3.91H90Zm3.2-7.76c-.27-1.31-.5-2.3-.72-3.82h-.05c-.22,1.55-.45,2.48-.72,3.8l-.59,2.74H92.9Z"/><path d="M97,54.16h1.4V66.24h4v1.24H97Z"/><path d="M113.36,67.48h-1.42l-2.09-5.63a3.6,3.6,0,0,1-.45,0H108.2v5.62h-1.39V54.16h2.52c2.59,0,3.89,1.15,3.89,3.8a3.6,3.6,0,0,1-2,3.58Zm-3.94-6.79c1.76,0,2.41-.76,2.41-2.7s-.63-2.59-2.5-2.59H108.2v5.29Z"/><path d="M115.42,54.16h1.4V67.48h-1.4Z"/><path d="M118.85,60.8c0-4.75,1.44-6.8,3.8-6.8,2,0,2.93,1.44,3.33,4.32l-1.31.18c-.27-2.16-.85-3.22-2-3.22-1.58,0-2.39,1.84-2.39,5.51s.77,5.58,2.43,5.58c1.48,0,2.12-1.28,2.16-4h-2V61.18h3.22v6.3H125V65.79h0a2.48,2.48,0,0,1-2.43,1.82C120.08,67.61,118.85,65.5,118.85,60.8Z"/><path d="M128.27,54.16h1.4v5.65h4V54.16h1.4V67.48h-1.4V61.05h-4v6.43h-1.4Z"/><path d="M139.34,55.42h-2.65V54.16h6.71v1.26h-2.65V67.48h-1.42Z"/><path d="M143.91,64.13l1.3-.29c.4,1.66,1,2.57,2.36,2.57a1.69,1.69,0,0,0,1.84-1.87c0-2.72-5-4-5-7.58a2.84,2.84,0,0,1,3-3c1.85,0,2.74,1.28,3.24,3.2l-1.28.34c-.4-1.49-.94-2.27-2-2.27a1.47,1.47,0,0,0-1.6,1.64c0,3,5,4,5,7.61a3.06,3.06,0,0,1-3.24,3.19C145.44,67.68,144.45,66.35,143.91,64.13Z"/></svg>