<?xml version="1.0" encoding="UTF-8"?>
<svg width="360px" height="56px" viewBox="0 0 360 56" version="1.1" xmlns="http://www.w3.org/2000/svg" xmlns:xlink="http://www.w3.org/1999/xlink">
    <!-- Generator: Sketch 46.2 (44496) - http://www.bohemiancoding.com/sketch -->
    <title>ford_logo_edited</title>
    <desc>Created with Sketch.</desc>
    <defs></defs>
    <g id="Page-1" stroke="none" stroke-width="1" fill="none" fill-rule="evenodd">
        <g id="About" transform="translate(-410.000000, -3948.000000)">
            <g id="ford_logo_edited" transform="translate(410.000000, 3948.000000)">
                <path d="M218.83241,30.0633344 C218.83241,35.6831495 215.343477,36.6197853 212.257113,36.6197853 C209.170749,36.6197853 205.681817,35.5493444 205.681817,30.0633344 L205.681817,16.8166275 L203.534781,16.8166275 L203.534781,30.3309447 C203.534781,33.9436829 204.876678,38.8944724 212.257113,38.8944724 C219.637548,38.8944724 220.979445,33.9436829 220.979445,30.3309447 L220.979445,16.8166275 L218.83241,16.8166275 L218.83241,30.0633344 Z M70.5527638,38.3592519 L73.5049378,38.3592519 L73.5049378,29.1266986 L85.1794438,29.1266986 L85.1794438,26.4505962 L73.5049378,26.4505962 L73.5049378,19.7603402 L85.8503924,19.7603402 L85.8503924,17.0842378 L70.5527638,17.0842378 L70.5527638,38.3592519 Z M99.5377444,16.281407 C92.9624478,16.281407 88.2658075,21.2321965 88.2658075,27.5210371 C88.2658075,33.9436829 92.9624478,38.7606672 99.5377444,38.7606672 C106.113041,38.7606672 110.809681,33.8098778 110.809681,27.5210371 C110.809681,21.2321965 106.113041,16.281407 99.5377444,16.281407 Z M99.5377444,36.0845648 C94.5727245,36.0845648 91.4863609,32.2042163 91.4863609,27.5210371 C91.4863609,22.8378579 94.7069143,18.9575094 99.5377444,18.9575094 C104.502764,18.9575094 107.589128,22.8378579 107.589128,27.5210371 C107.589128,32.3380215 104.502764,36.0845648 99.5377444,36.0845648 Z M132.548417,22.8378579 C132.548417,20.1617555 131.206519,16.8166275 125.704741,16.8166275 L114.701183,16.8166275 L114.701183,38.2254468 L117.653357,38.2254468 L117.653357,28.7252832 L124.362843,28.7252832 L129.864622,38.2254468 L133.487745,38.2254468 L127.315017,28.457673 C130.535571,28.1900627 132.548417,25.6477655 132.548417,22.8378579 Z M117.519167,26.3167911 L117.519167,19.3589248 L124.899602,19.3589248 C127.180828,19.3589248 129.462053,19.8941453 129.462053,22.8378579 C129.462053,25.7815706 127.180828,26.3167911 124.899602,26.3167911 L117.519167,26.3167911 L117.519167,26.3167911 Z M145.29644,16.8166275 L137.781816,16.8166275 L137.781816,38.2254468 L144.759682,38.2254468 C152.408496,38.2254468 156.568377,33.0070471 156.568377,27.5210371 C156.568377,23.6406887 154.421342,16.8166275 145.29644,16.8166275 Z M144.357112,35.5493444 L140.73399,35.5493444 L140.73399,19.4927299 L145.162251,19.4927299 C152.140116,19.4927299 153.616203,24.7111296 153.616203,27.5210371 C153.482014,32.8732419 149.322132,35.5493444 144.357112,35.5493444 Z M160.594069,38.3592519 L162.741105,38.3592519 L162.741105,28.1900627 L174.5498,28.1900627 L174.5498,26.1829859 L162.741105,26.1829859 L162.741105,18.8237043 L175.220749,18.8237043 L175.220749,16.8166275 L160.459879,16.8166275 L160.594069,38.3592519 L160.594069,38.3592519 Z M188.505532,16.281407 C182.064425,16.281407 177.233595,21.0983914 177.233595,27.5210371 C177.233595,34.077488 182.064425,38.7606672 188.505532,38.7606672 C194.946639,38.7606672 199.777469,33.9436829 199.777469,27.5210371 C199.777469,21.0983914 194.946639,16.281407 188.505532,16.281407 Z M188.505532,36.8873956 C183.003753,36.8873956 179.64901,32.6056317 179.64901,27.6548423 C179.64901,22.7040528 183.003753,18.422289 188.505532,18.422289 C194.007311,18.422289 197.362054,22.7040528 197.362054,27.6548423 C197.362054,32.4718266 194.1415,36.8873956 188.505532,36.8873956 Z M242.047232,35.0141239 L242.047232,35.0141239 L229.165018,16.8166275 L226.481224,16.8166275 L226.481224,38.2254468 L228.62826,38.2254468 L228.62826,19.8941453 L228.62826,19.8941453 L241.510473,38.2254468 L244.194268,38.2254468 L244.194268,16.8166275 L242.047232,16.8166275 L242.047232,35.0141239 Z M256.942291,16.8166275 L249.830236,16.8166275 L249.830236,38.2254468 L256.942291,38.2254468 C262.30988,38.2254468 268.214228,34.6127085 268.214228,27.5210371 C268.214228,20.4293658 262.30988,16.8166275 256.942291,16.8166275 Z M256.271343,36.3521751 L251.977272,36.3521751 L251.977272,18.9575094 L256.271343,18.9575094 C262.846639,18.9575094 265.933003,23.2392733 265.933003,27.6548423 C265.933003,32.0704112 262.846639,36.3521751 256.271343,36.3521751 Z M278.815217,16.8166275 L269.421936,38.2254468 L271.971541,38.2254468 L274.386956,32.6056317 L285.390513,32.6056317 L287.805928,38.2254468 L290.355533,38.2254468 L280.962252,16.8166275 C280.962252,16.8166275 278.815217,16.8166275 278.815217,16.8166275 Z M275.192094,30.73236 L279.888734,19.4927299 L284.585375,30.73236 L275.192094,30.73236 Z M288.611066,18.8237043 L295.857312,18.8237043 L295.857312,38.2254468 L298.004347,38.2254468 L298.004347,18.8237043 L305.250592,18.8237043 L305.250592,16.8166275 L288.611066,16.8166275 L288.611066,18.8237043 Z M308.605335,38.3592519 L310.752371,38.3592519 L310.752371,16.9504326 L308.605335,16.9504326 L308.605335,38.3592519 Z M326.586759,16.281407 C320.145652,16.281407 315.314822,21.0983914 315.314822,27.5210371 C315.314822,34.077488 320.145652,38.7606672 326.586759,38.7606672 C333.027865,38.7606672 337.858695,33.9436829 337.858695,27.5210371 C337.858695,21.0983914 333.027865,16.281407 326.586759,16.281407 Z M326.586759,36.8873956 C321.08498,36.8873956 317.730237,32.6056317 317.730237,27.6548423 C317.730237,22.7040528 321.08498,18.422289 326.586759,18.422289 C332.088537,18.422289 335.44328,22.7040528 335.44328,27.6548423 C335.44328,32.4718266 332.088537,36.8873956 326.586759,36.8873956 Z M357.852964,16.8166275 L357.852964,35.0141239 L357.852964,35.0141239 L344.970751,16.8166275 L342.286956,16.8166275 L342.286956,38.2254468 L344.433992,38.2254468 L344.433992,19.8941453 L344.433992,19.8941453 L357.316206,38.2254468 L360,38.2254468 L360,16.8166275 C360,16.8166275 357.852964,16.8166275 357.852964,16.8166275 Z" id="Shape" fill="#3F1C04" fill-rule="nonzero"></path>
                <path d="M45.2261307,6.04899497 C44.960804,5.78517588 44.5628141,5.52135678 44.1648241,5.25753769 C43.3688442,5.78517588 42.440201,6.04899497 41.5115578,6.04899497 C38.8582915,6.04899497 36.6030151,3.93844221 36.4703518,1.30025126 C36.0723618,1.16834171 35.6743719,1.03643216 35.2763819,0.904522613 L35.2763819,1.03643216 C35.2763819,4.4660804 38.0623116,7.2361809 41.5115578,7.10427136 L41.5115578,7.2361809 C42.838191,7.2361809 44.1648241,6.84045226 45.2261307,6.04899497 Z" id="Shape" fill="#526980" fill-rule="nonzero"></path>
                <path d="M33.024698,1.60030924 C33.024698,4.52261307 30.7345237,6.88828759 27.9054849,6.88828759 C24.9417299,6.88828759 22.6515557,4.52261307 22.6515557,1.60030924 C22.6515557,1.32199459 22.6515557,1.04367994 22.7862718,0.904522613 C22.3821234,1.04367994 21.977975,1.04367994 21.7085427,1.18283726 C21.7085427,1.32199459 21.7085427,1.46115191 21.7085427,1.60030924 C21.7085427,5.21839969 24.5375815,8.14070352 28.040201,8.00154619 L28.040201,8.14070352 C31.5428205,8.14070352 34.3718593,5.21839969 34.3718593,1.60030924 C34.3718593,1.46115191 34.3718593,1.32199459 34.3718593,1.18283726 C33.9677109,1.04367994 33.5635625,1.04367994 33.1594141,0.904522613 C33.024698,1.04367994 33.024698,1.32199459 33.024698,1.60030924 Z" id="Shape" fill="#C97729" fill-rule="nonzero"></path>
                <path d="M28.040201,55.1758794 C12.5977715,55.1758794 0,42.7812978 0,27.5879397 C0,12.3945816 12.5977715,0 28.040201,0 C43.4826305,0 56.080402,12.3945816 56.080402,27.5879397 C56.080402,42.7812978 43.4826305,55.1758794 28.040201,55.1758794 Z" id="Shape"></path>
                <path d="M13.1801866,6.54795718 C12.1464465,6.54795718 11.1127064,6.27266769 10.3374013,5.58444396 C10.2081838,5.7220887 10.0789663,5.85973345 9.94974874,5.9973782 C10.8542714,6.68560192 12.017229,7.09853616 13.1801866,7.09853616 L13.1801866,7.2361809 C16.4106246,7.2361809 18.9949749,4.483286 18.9949749,1.04216736 C18.9949749,1.04216736 18.9949749,1.04216736 18.9949749,0.904522613 C18.8657574,0.904522613 18.6073223,1.04216736 18.4781048,1.04216736 C18.3488873,4.2079965 15.8937545,6.54795718 13.1801866,6.54795718 Z" id="Shape" fill="#00A4D8" fill-rule="nonzero"></path>
                <path d="M53.5977761,17.6324661 C51.7117502,17.1286814 50.3645889,15.491381 50.3645889,13.476242 C50.3645889,12.9724572 50.499305,12.3427263 50.6340212,11.8389415 C50.2298728,11.2092106 49.6910082,10.5794797 49.1521437,9.94974874 C48.3438469,10.9573182 47.9396985,12.2167801 47.9396985,13.476242 C47.9396985,16.876789 50.7687373,19.6476051 54.2713568,19.8994975 C54.1366407,19.1438204 54.0019245,18.3881432 53.5977761,17.6324661 Z" id="Shape" fill="#00A4D8" fill-rule="nonzero"></path>
                <path d="M35.2763819,14.4723618 C35.2763819,10.9697423 38.1054207,8.14070352 41.6080402,8.14070352 L41.6080402,8.14070352 C45.1106597,8.14070352 47.9396985,10.9697423 47.9396985,14.4723618 L47.9396985,14.4723618 C47.9396985,17.9749813 45.1106597,20.8040201 41.6080402,20.8040201 L41.6080402,20.8040201 L41.6080402,20.2651556 L41.6080402,19.726291 C44.437079,19.726291 46.7272533,17.4361168 46.8619694,14.6070779 L46.8619694,14.6070779 C46.8619694,11.7780391 44.5717951,9.48786486 41.6080402,9.35314872 L41.6080402,9.35314872 C38.7790014,9.35314872 36.4888271,11.643323 36.4888271,14.6070779 L36.4888271,14.6070779 C36.4888271,17.4361168 38.7790014,19.726291 41.6080402,19.726291 L41.6080402,19.726291 L41.6080402,20.2651556 L41.6080402,20.8040201 C38.1054207,20.8040201 35.2763819,17.9749813 35.2763819,14.4723618 L35.2763819,14.4723618 Z" id="Shape" fill="#AB9D00" fill-rule="nonzero"></path>
                <path d="M20.8040201,14.9246231 C20.8040201,10.682724 24.2505632,7.2361809 28.4924623,7.2361809 L28.4924623,7.2361809 C32.7343615,7.2361809 36.1809045,10.682724 36.1809045,14.9246231 L36.1809045,14.9246231 C36.1809045,19.1665223 32.7343615,22.6130653 28.4924623,22.6130653 L28.4924623,22.6130653 L28.4924623,20.6246751 L28.4924623,18.6362849 C30.4808525,18.6362849 32.2041241,17.0455727 32.2041241,14.9246231 L32.2041241,14.9246231 C32.2041241,12.9362329 30.6134119,11.2129614 28.4924623,11.2129614 L28.4924623,11.2129614 C26.5040721,11.2129614 24.7808006,12.8036735 24.7808006,14.9246231 L24.7808006,14.9246231 C24.7808006,16.9130133 26.3715127,18.6362849 28.4924623,18.6362849 L28.4924623,18.6362849 L28.4924623,20.6246751 L28.4924623,22.6130653 C24.2505632,22.6130653 20.8040201,19.1665223 20.8040201,14.9246231 L20.8040201,14.9246231 Z" id="Shape" fill="#796E90" fill-rule="nonzero"></path>
                <path d="M8.14070352,14.4723618 C8.14070352,10.9697423 10.9697423,8.14070352 14.4723618,8.14070352 L14.4723618,8.14070352 C17.9749813,8.14070352 20.8040201,10.9697423 20.8040201,14.4723618 L20.8040201,14.4723618 C20.8040201,17.9749813 17.9749813,20.8040201 14.4723618,20.8040201 L14.4723618,20.8040201 L14.4723618,20.2651556 L14.4723618,19.726291 C17.3014006,19.726291 19.5915749,17.4361168 19.5915749,14.6070779 L19.5915749,14.6070779 C19.5915749,11.7780391 17.3014006,9.48786486 14.4723618,9.35314872 L14.4723618,9.35314872 C11.643323,9.35314872 9.35314872,11.643323 9.21843259,14.6070779 L9.21843259,14.6070779 C9.21843259,17.4361168 11.5086069,19.726291 14.4723618,19.726291 L14.4723618,19.726291 L14.4723618,20.2651556 L14.4723618,20.8040201 C10.9697423,20.8040201 8.14070352,17.9749813 8.14070352,14.4723618 L8.14070352,14.4723618 Z" id="Shape" fill="#5B96A6" fill-rule="nonzero"></path>
                <path d="M28.040201,55.1758794 C12.5977715,55.1758794 0,42.7812978 0,27.5879397 C0,12.3945816 12.5977715,0 28.040201,0 C43.4826305,0 56.080402,12.3945816 56.080402,27.5879397 C56.080402,42.7812978 43.4826305,55.1758794 28.040201,55.1758794 Z" id="Shape"></path>
                <path d="M5.77502899,13.959349 C5.77502899,16.7944199 3.68766911,18.9544739 1.04367994,19.359484 C1.04367994,19.4944874 0.904522613,19.7644941 0.904522613,19.8994975 C3.96598376,19.6294907 6.33165829,17.0644266 6.33165829,13.959349 C6.33165829,12.7443186 6.05334364,11.799295 5.35755702,10.8542714 C5.35755702,10.9892747 5.21839969,11.1242781 5.07924237,11.2592815 C5.49671434,12.0693017 5.77502899,13.0143254 5.77502899,13.959349 Z" id="Shape" fill="#838970" fill-rule="nonzero"></path>
                <path d="M35.2763819,28.040201 C35.2763819,24.5226131 38.0904523,21.7085427 41.6080402,21.7085427 L41.6080402,21.7085427 C45.1256281,21.7085427 47.9396985,24.5226131 47.9396985,28.040201 L47.9396985,28.040201 C47.9396985,31.5577889 45.1256281,34.3718593 41.6080402,34.3718593 L41.6080402,34.3718593 L41.6080402,34.0904523 L41.6080402,33.8090452 C44.7035176,33.8090452 47.3768844,31.2763819 47.3768844,28.040201 L47.3768844,28.040201 C47.3768844,24.9447236 44.8442211,22.2713568 41.6080402,22.2713568 L41.6080402,22.2713568 C38.5125628,22.2713568 35.839196,24.8040201 35.839196,28.040201 L35.839196,28.040201 C35.839196,31.1356784 38.3718593,33.8090452 41.6080402,33.8090452 L41.6080402,33.8090452 L41.6080402,34.0904523 L41.6080402,34.3718593 C38.0904523,34.3718593 35.2763819,31.5577889 35.2763819,28.040201 L35.2763819,28.040201 Z" id="Shape" fill="#526980" fill-rule="nonzero"></path>
                <path d="M21.7085427,28.4924623 C21.7085427,24.7543842 24.7543842,21.7085427 28.4924623,21.7085427 L28.4924623,21.7085427 C32.2305405,21.7085427 35.2763819,24.7543842 35.2763819,28.4924623 L35.2763819,28.4924623 C35.2763819,32.2305405 32.2305405,35.2763819 28.4924623,35.2763819 L28.4924623,35.2763819 L28.4924623,34.4456979 L28.4924623,33.6150138 C31.2614091,33.6150138 33.6150138,31.3998564 33.6150138,28.4924623 L33.6150138,28.4924623 C33.6150138,25.7235155 31.3998564,23.3699108 28.4924623,23.3699108 L28.4924623,23.3699108 C25.7235155,23.3699108 23.3699108,25.7235155 23.3699108,28.4924623 L23.3699108,28.4924623 C23.3699108,31.2614091 25.5850682,33.6150138 28.4924623,33.6150138 L28.4924623,33.6150138 L28.4924623,34.4456979 L28.4924623,35.2763819 C24.7543842,35.2763819 21.7085427,32.2305405 21.7085427,28.4924623 L21.7085427,28.4924623 Z" id="Shape" fill="#00A4D8" fill-rule="nonzero"></path>
                <path d="M7.2361809,27.5220764 C7.2361809,23.8337318 10.2955956,20.8040201 14.0201005,20.8040201 L14.0201005,20.8040201 C17.7446054,20.8040201 20.8040201,23.8337318 20.8040201,27.5220764 L20.8040201,27.5220764 C20.8040201,31.210421 17.7446054,34.2401327 14.0201005,34.2401327 L14.0201005,34.2401327 L14.0201005,33.1863199 L14.0201005,32.0007806 C16.5474431,32.0007806 18.5427136,30.0248817 18.5427136,27.5220764 L18.5427136,27.5220764 C18.5427136,25.0192711 16.5474431,23.0433722 14.0201005,23.0433722 L14.0201005,23.0433722 C11.4927579,23.0433722 9.49748744,25.0192711 9.49748744,27.5220764 L9.49748744,27.5220764 C9.49748744,30.0248817 11.4927579,32.0007806 14.0201005,32.0007806 L14.0201005,32.0007806 L14.0201005,33.1863199 L14.0201005,34.3718593 C10.2955956,34.2401327 7.2361809,31.210421 7.2361809,27.5220764 L7.2361809,27.5220764 Z" id="Shape" fill="#908480" fill-rule="nonzero"></path>
                <path d="M5.96984925,28.1749171 C5.96984925,30.8692398 3.71859296,33.1594141 0.904522613,33.2941302 C1.04522613,33.6982786 1.04522613,33.9677109 1.18592965,34.3718593 C4.56281407,34.102427 7.2361809,31.4081044 7.2361809,28.040201 C7.2361809,24.6722977 4.56281407,21.977975 1.18592965,21.7085427 C1.04522613,22.1126911 1.04522613,22.5168395 0.904522613,22.9209879 C3.71859296,23.1904202 5.96984925,25.4805945 5.96984925,28.1749171 Z" id="Shape" fill="#C97729" fill-rule="nonzero"></path>
                <path d="M28.040201,55.1758794 C12.5977715,55.1758794 0,42.7812978 0,27.5879397 C0,12.3945816 12.5977715,0 28.040201,0 C43.4826305,0 56.080402,12.3945816 56.080402,27.5879397 C56.080402,42.7812978 43.4826305,55.1758794 28.040201,55.1758794 Z" id="Shape"></path>
                <path d="M50.6111955,40.9602064 C50.6111955,38.5399973 52.3781699,36.6576124 54.7341358,36.1197881 C54.8813837,35.5819639 55.0286315,35.0441396 55.1758794,34.3718593 C51.6419306,34.7752275 48.8442211,37.4643488 48.8442211,40.8257504 C48.8442211,42.170311 49.2859647,43.3804156 49.8749562,44.321608 C50.3166998,43.7837838 50.6111955,43.3804156 51.0529391,42.8425913 C50.7584434,42.4392231 50.6111955,41.6324868 50.6111955,40.9602064 Z" id="Shape" fill="#00A4D8" fill-rule="nonzero"></path>
                <path d="M34.3718593,40.2491676 C34.3718593,36.5258094 37.431274,33.4673367 41.1557789,33.4673367 L41.1557789,33.4673367 C44.8802838,33.4673367 47.9396985,36.5258094 47.9396985,40.2491676 L47.9396985,40.2491676 C47.9396985,43.9725257 44.8802838,47.0309984 41.1557789,47.0309984 L41.1557789,47.0309984 L41.1557789,45.8342048 L41.1557789,44.6374111 C43.6831215,44.6374111 45.678392,42.6427549 45.678392,40.1161905 L45.678392,40.1161905 C45.678392,37.589626 43.6831215,35.5949699 41.1557789,35.5949699 L41.1557789,35.5949699 C38.6284363,35.5949699 36.6331658,37.589626 36.6331658,40.1161905 L36.6331658,40.1161905 C36.6331658,42.6427549 38.6284363,44.6374111 41.1557789,44.6374111 L41.1557789,44.6374111 L41.1557789,45.8342048 L41.1557789,47.0309984 C37.431274,47.1639755 34.3718593,44.1055028 34.3718593,40.2491676 L34.3718593,40.2491676 Z" id="Shape" fill="#C97729" fill-rule="nonzero"></path>
                <path d="M21.7085427,40.7035176 C21.7085427,37.1859296 24.5226131,34.3718593 28.040201,34.3718593 L28.040201,34.3718593 C31.5577889,34.3718593 34.3718593,37.1859296 34.3718593,40.7035176 L34.3718593,40.7035176 C34.3718593,44.2211055 31.5577889,47.0351759 28.040201,47.0351759 L28.040201,47.0351759 L28.040201,46.7537688 L28.040201,46.4723618 C31.1356784,46.4723618 33.8090452,43.9396985 33.8090452,40.7035176 L33.8090452,40.7035176 C33.8090452,37.6080402 31.2763819,34.9346734 28.040201,34.9346734 L28.040201,34.9346734 C24.9447236,34.9346734 22.2713568,37.4673367 22.2713568,40.7035176 L22.2713568,40.7035176 C22.2713568,43.798995 24.8040201,46.4723618 28.040201,46.4723618 L28.040201,46.4723618 L28.040201,46.7537688 L28.040201,47.0351759 C24.5226131,47.0351759 21.7085427,44.2211055 21.7085427,40.7035176 L21.7085427,40.7035176 Z" id="Shape" fill="#668F39" fill-rule="nonzero"></path>
                <path d="M6.33165829,40.2512563 C6.33165829,36.0093571 9.77820135,32.5628141 14.0201005,32.5628141 L14.0201005,32.5628141 C18.2619997,32.5628141 21.7085427,36.0093571 21.7085427,40.2512563 L21.7085427,40.2512563 C21.7085427,44.4931554 18.2619997,47.9396985 14.0201005,47.9396985 L14.0201005,47.9396985 L14.0201005,45.9513083 L14.0201005,43.962918 C16.0084907,43.962918 17.7317623,42.3722059 17.7317623,40.2512563 L17.7317623,40.2512563 C17.7317623,38.2628661 16.1410501,36.5395945 14.0201005,36.5395945 L14.0201005,36.5395945 C12.0317103,36.5395945 10.3084387,38.1303067 10.3084387,40.2512563 L10.3084387,40.2512563 C10.3084387,42.2396465 11.8991509,43.962918 14.0201005,43.962918 L14.0201005,43.962918 L14.0201005,45.9513083 L14.0201005,47.9396985 C9.77820135,47.9396985 6.33165829,44.4931554 6.33165829,40.2512563 L6.33165829,40.2512563 Z" id="Shape" fill="#8C8B6A" fill-rule="nonzero"></path>
                <path d="M0.904522613,34.3718593 C1.05527638,34.7540519 1.05527638,35.1362446 1.20603015,35.5184373 C3.91959799,35.9006299 5.87939698,37.8115932 5.87939698,40.2321466 C5.87939698,40.996532 5.57788945,41.7609173 5.27638191,42.397905 C5.57788945,42.7800977 5.87939698,43.0348928 6.18090452,43.4170854 C6.93467337,42.5253026 7.2361809,41.3787246 7.2361809,40.2321466 C7.2361809,37.1746054 4.52261307,34.6266544 0.904522613,34.3718593 Z" id="Shape" fill="#00A4D8" fill-rule="nonzero"></path>
                <path d="M28.040201,55.1758794 C12.5977715,55.1758794 0,42.7812978 0,27.5879397 C0,12.3945816 12.5977715,0 28.040201,0 C43.4826305,0 56.080402,12.3945816 56.080402,27.5879397 C56.080402,42.7812978 43.4826305,55.1758794 28.040201,55.1758794 Z" id="Shape"></path>
                <path d="M41.364889,47.0351759 C37.0076187,47.0351759 33.4673367,50.5049839 33.4673367,54.7755169 C33.4673367,54.9089711 33.4673367,55.0424252 33.4673367,55.1758794 C34.9651483,54.9089711 36.3267953,54.3751545 37.6884422,53.974792 C38.0969363,52.239888 39.5947479,51.1722547 41.364889,51.1722547 C41.9095477,51.1722547 42.3180418,51.3057089 42.7265359,51.439163 C43.9520182,50.6384381 45.0413357,49.704259 46.1306533,48.7700799 C44.905171,47.7024467 43.13503,47.0351759 41.364889,47.0351759 Z" id="Shape" fill="#00A4D8" fill-rule="nonzero"></path>
                <path d="M28.040201,55.1758794 C12.5977715,55.1758794 0,42.7812978 0,27.5879397 C0,12.3945816 12.5977715,0 28.040201,0 C43.4826305,0 56.080402,12.3945816 56.080402,27.5879397 C56.080402,42.7812978 43.4826305,55.1758794 28.040201,55.1758794 Z" id="Shape"></path>
                <path d="M28.040201,47.9396985 C24.5375815,47.9396985 21.7085427,50.9193024 21.7085427,54.6083358 C21.7085427,54.7502217 21.7085427,54.8921076 21.7085427,54.8921076 C22.1126911,55.0339935 22.3821234,55.0339935 22.7862718,55.1758794 C22.7862718,55.0339935 22.7862718,54.8921076 22.7862718,54.7502217 C22.9209879,51.6287319 25.2111622,49.2166716 28.040201,49.2166716 C30.8692398,49.3585575 33.1594141,51.7706178 33.1594141,54.7502217 C33.1594141,54.8921076 33.1594141,55.0339935 33.1594141,55.1758794 C33.5635625,55.0339935 33.9677109,55.0339935 34.3718593,54.8921076 C34.3718593,54.7502217 34.3718593,54.6083358 34.3718593,54.6083358 C34.3718593,50.9193024 31.5428205,47.9396985 28.040201,47.9396985 Z" id="Shape" fill="#AB9D00" fill-rule="nonzero"></path>
                <path d="M28.040201,55.1758794 C12.5977715,55.1758794 0,42.7812978 0,27.5879397 C0,12.3945816 12.5977715,0 28.040201,0 C43.4826305,0 56.080402,12.3945816 56.080402,27.5879397 C56.080402,42.7812978 43.4826305,55.1758794 28.040201,55.1758794 Z" id="Shape"></path>
                <path d="M13.6490143,47.9396985 C12.2458446,47.9396985 10.9702358,48.5072421 9.94974874,49.3585575 C10.3324314,49.7842152 10.8426749,50.067987 11.2253576,50.4936447 C11.9907228,50.067987 12.7560881,49.7842152 13.6490143,49.7842152 C16.2002319,49.7842152 18.1136451,51.9125037 18.3687669,54.6083358 C18.8790104,54.7502217 19.389254,54.8921076 19.8994975,55.1758794 L19.8994975,55.0339935 C19.8994975,51.0611883 17.0931581,47.9396985 13.6490143,47.9396985 Z" id="Shape" fill="#526980" fill-rule="nonzero"></path>
                <path d="M50.1105528,28.1749171 C50.1105528,25.3458783 52.361809,23.0557041 55.1758794,22.9209879 C55.0351759,22.5168395 55.0351759,22.1126911 54.8944724,21.7085427 C51.5175879,21.977975 48.8442211,24.6722977 48.8442211,28.040201 C48.8442211,31.4081044 51.5175879,34.102427 54.8944724,34.3718593 C55.0351759,33.9677109 55.0351759,33.6982786 55.1758794,33.2941302 C52.361809,33.1594141 50.1105528,30.8692398 50.1105528,28.1749171 Z" id="Shape" fill="#5B96A6" fill-rule="nonzero"></path>
            </g>
        </g>
    </g>
</svg>